<svg xmlns="http://www.w3.org/2000/svg" width="25" height="25" enable-background="new" viewBox="0 0 6.615 6.615"><g transform="translate(-26.458)"><path fill="none" stroke="#000" stroke-linecap="round" stroke-linejoin="round" stroke-width=".265" d="m 29.765624,1.86193 c 0.360176,0 0.650137,0.29402 0.650137,0.65924 0,0.36523 -0.289961,0.65926 -0.650137,0.65926 -0.360174,0 -0.650135,-0.29403 -0.650135,-0.65926 0,-0.36522 0.289961,-0.65924 0.650135,-0.65924 z" paint-order="markers stroke fill"/><path fill="#81bcf3" style="line-height:normal;font-variant-ligatures:normal;font-variant-position:normal;font-variant-caps:normal;font-variant-numeric:normal;font-variant-alternates:normal;font-feature-settings:normal;text-indent:0;text-align:start;text-decoration-line:none;text-decoration-style:solid;text-decoration-color:#000;text-transform:none;text-orientation:mixed;shape-padding:0;isolation:auto;mix-blend-mode:normal" d="m 29.765625,0.67179361 c -1.439866,0 -2.601392,1.17792109 -2.601392,2.63498129 0,1.4570792 1.161524,2.6365316 2.601392,2.6365316 1.439873,0 2.601391,-1.1794524 2.601391,-2.6365316 0,-1.4570603 -1.161521,-2.63498129 -2.601391,-2.63498129 z" color="#000" font-family="sans-serif" font-weight="400" overflow="visible" paint-order="markers stroke fill"/><path fill="#ecebf1" style="line-height:normal;font-variant-ligatures:normal;font-variant-position:normal;font-variant-caps:normal;font-variant-numeric:normal;font-variant-alternates:normal;font-feature-settings:normal;text-indent:0;text-align:start;text-decoration-line:none;text-decoration-style:solid;text-decoration-color:#000;text-transform:none;text-orientation:mixed;shape-padding:0;isolation:auto;mix-blend-mode:normal" d="m 29.765625,1.7306437 c -0.432171,0 -0.783416,0.3554087 -0.783416,0.7906494 0,0.4352486 0.351243,0.7911661 0.783416,0.7911661 0.432173,0 0.783415,-0.3559175 0.783415,-0.7911661 0,-0.4352407 -0.351245,-0.7906494 -0.783415,-0.7906494 z m 0.0041,1.9833413 c -0.330726,0 -0.628491,0.090323 -0.889349,0.2258261 -0.260861,0.1355035 -0.484696,0.316456 -0.667144,0.4971273 -0.271246,0.2686042 -0.380294,0.4332731 -0.45475,0.5534546 0.476657,0.5794562 1.202327,0.9529135 2.00711,0.9529135 0.805043,0 1.548331,-0.3659187 2.004529,-0.9544637 C 31.696268,4.8684687 31.591437,4.7052491 31.322113,4.4369384 31.140759,4.2562671 30.91811,4.0753146 30.658072,3.9398111 30.398032,3.8043077 30.100484,3.713985 29.769752,3.713985 Z" color="#000" font-family="sans-serif" font-weight="400" overflow="visible" paint-order="markers stroke fill"/><path fill="#6ea9e3" style="line-height:normal;font-variant-ligatures:normal;font-variant-position:normal;font-variant-caps:normal;font-variant-numeric:normal;font-variant-alternates:normal;font-feature-settings:normal;text-indent:0;text-align:start;text-decoration-line:none;text-decoration-style:solid;text-decoration-color:#000;text-transform:none;text-orientation:mixed;shape-padding:0;isolation:auto;mix-blend-mode:normal" d="m 112.5,2.5390625 c -5.44201,0 -9.83203,4.4519852 -9.83203,9.9589845 0,3.293822 1.57721,6.20378 4.00391,8.017578 -1.25272,-1.672765 -2.00391,-3.752845 -2.00391,-6.017578 0,-5.5069993 4.39002,-9.9589845 9.83203,-9.9589845 2.18809,0 4.1991,0.7286338 5.83008,1.9472656 C 118.53675,4.0911943 115.70558,2.5390625 112.5,2.5390625 Z" color="#000" font-family="sans-serif" font-weight="400" overflow="visible" paint-order="markers stroke fill" transform="scale(.26458)"/><path fill="#d9d7e4" style="line-height:normal;font-variant-ligatures:normal;font-variant-position:normal;font-variant-caps:normal;font-variant-numeric:normal;font-variant-alternates:normal;font-feature-settings:normal;text-indent:0;text-align:start;text-decoration-line:none;text-decoration-style:solid;text-decoration-color:#000;text-transform:none;text-orientation:mixed;shape-padding:0;isolation:auto;mix-blend-mode:normal" d="m 112.5,6.5410156 c -1.6334,0 -2.96094,1.3432771 -2.96094,2.9882813 0,1.3556341 0.90737,2.4940441 2.13867,2.8574221 -0.0818,-0.273278 -0.13867,-0.557968 -0.13867,-0.857422 0,-1.6450043 1.32754,-2.9882814 2.96094,-2.9882814 0.28735,0 0.55941,0.055337 0.82227,0.1328125 C 114.95493,7.4458568 113.83642,6.5410156 112.5,6.5410156 Z m 0.0156,7.4960934 c -1.24998,0 -2.3754,0.341378 -3.36132,0.853516 -0.98593,0.512139 -1.83192,1.196054 -2.52149,1.878906 -1.02518,1.015197 -1.43734,1.637568 -1.71875,2.091797 0.59549,0.723913 1.30213,1.35189 2.08008,1.882813 0.28093,-0.445384 0.68499,-1.030218 1.63867,-1.97461 0.68957,-0.682852 1.53556,-1.366767 2.52149,-1.878906 0.98592,-0.512138 2.11134,-0.853516 3.36132,-0.853516 1.25002,0 2.3746,0.341377 3.35743,0.853516 0.56029,0.291962 1.06945,0.64208 1.53515,1.013672 -0.25182,-0.315991 -0.56945,-0.680539 -1.02539,-1.134766 -0.68543,-0.682852 -1.52694,-1.366767 -2.50976,-1.878906 -0.30409,-0.158453 -0.6263,-0.293355 -0.95703,-0.414063 -0.13727,0.01981 -0.27341,0.04297 -0.41602,0.04297 -0.5695,0 -1.09699,-0.170379 -1.54883,-0.453125 -0.14533,-0.0094 -0.28663,-0.0293 -0.43555,-0.0293 z" color="#000" font-family="sans-serif" font-weight="400" overflow="visible" paint-order="markers stroke fill" transform="scale(.26458)"/><path style="line-height:normal;font-variant-ligatures:normal;font-variant-position:normal;font-variant-caps:normal;font-variant-numeric:normal;font-variant-alternates:normal;font-feature-settings:normal;text-indent:0;text-align:start;text-decoration-line:none;text-decoration-style:solid;text-decoration-color:#000;text-transform:none;text-orientation:mixed;shape-padding:0;isolation:auto;mix-blend-mode:normal" d="m 112.5,2.5390625 c -5.44201,0 -9.83203,4.451986 -9.83203,9.9589845 0,5.507074 4.39001,9.964844 9.83203,9.964844 5.44204,0 9.83203,-4.45777 9.83203,-9.964844 0,-5.5069985 -4.39,-9.9589845 -9.83203,-9.9589845 z m 0,0.9960937 c 4.89782,0 8.82813,3.9851773 8.82812,8.9628908 0,1.88856 -0.56732,3.633765 -1.5371,5.074219 -0.36,-0.635986 -2.4817,-4.033203 -7.2754,-4.033204 -4.79594,0 -6.94189,3.401611 -7.30468,4.035157 -0.97073,-1.440889 -1.53906,-3.186619 -1.53906,-5.076172 0,-4.9777135 3.93033,-8.9628908 8.82812,-8.9628908 z m 0,3.0058594 c -1.6334,0 -2.96094,1.3432797 -2.96094,2.9882813 0,1.6450391 1.32753,2.9902341 2.96094,2.9902341 1.63341,0 2.96094,-1.345195 2.96094,-2.9902341 0,-1.6450016 -1.32754,-2.9882813 -2.96094,-2.9882813 z m 0,0.9960938 c 1.08919,0 1.95703,0.8764709 1.95703,1.9921875 0,1.1157541 -0.86785,1.9941411 -1.95703,1.9941411 -1.08917,0 -1.95703,-0.878387 -1.95703,-1.9941411 0,-1.1157166 0.86785,-1.9921875 1.95703,-1.9921875 z m 0.0156,6.9980466 c 4.73334,0 6.5254,3.720703 6.5254,3.720703 a 0.50180731,0.50180731 0 0 0 0.10937,0.146485 c -1.61493,1.877564 -3.98681,3.064453 -6.65039,3.064453 -2.66456,0 -5.03737,-1.187625 -6.65234,-3.066406 a 0.50014613,0.50014613 0 0 0 0.10546,-0.138672 c 0,0 1.82917,-3.726563 6.5625,-3.726563 z" color="#000" font-family="sans-serif" font-weight="400" overflow="visible" transform="scale(.26458)"/></g></svg>