<svg xmlns="http://www.w3.org/2000/svg" data-name="Layer 1" viewBox="0 0 64 64"><path fill="#044388" d="M45.84356,18.02285h-3a1.00019,1.00019,0,0,1,.00006-2h2.99994A1.00019,1.00019,0,0,1,45.84356,18.02285Z"/><path fill="#ccdde7" d="M42.84356,17.02285a2.00021,2.00021,0,0,1-4-.00009A2.00021,2.00021,0,0,1,42.84356,17.02285Z"/><path fill="#044388" d="M45.84356,34.02285h-3a1.00019,1.00019,0,0,1,.00006-2h2.99994A1.00019,1.00019,0,0,1,45.84356,34.02285Z"/><path fill="#ccdde7" d="M42.84356,33.02285a2.00021,2.00021,0,0,1-4-.00009A2.00021,2.00021,0,0,1,42.84356,33.02285Z"/><path fill="#168fd6" d="M53.69947,54.727,27.92729,60.9479a.97911.97911,0,0,1-.60036-.03992C17.40716,57.26164,7.05427,47.36908,3.22,36.26a.99589.99589,0,0,1,.698-1.31454Q17.327,31.59421,30.73606,28.243a.9937.9937,0,0,1,1.17721.61667,42.72842,42.72842,0,0,0,7.70354,13.16321A42.91619,42.91619,0,0,0,53.89914,52.8552.99832.99832,0,0,1,53.69947,54.727Z"/><path fill="#fff" d="M10.98711 38.54335a1.00224 1.00224 0 0 1-.24017-1.97022l11.17767-2.78075a.99994.99994 0 0 1 .48236 1.94044L11.2293 38.51357A.98438.98438 0 0 1 10.98711 38.54335zM13.8045 41.47744a1.0024 1.0024 0 0 1-.2392-1.97071l11.18744-2.772a1.00011 1.00011 0 0 1 .48042 1.94142l-11.18745 2.772A.994.994 0 0 1 13.8045 41.47744zM16.62286 44.41249a1.00223 1.00223 0 0 1-.23823-1.9707l4.79-1.18213a.99994.99994 0 0 1 .47846 1.94142l-4.79 1.18212A.99188.99188 0 0 1 16.62286 44.41249z"/><rect width="15" height="18" x="45.844" y="3.023" fill="#044388" rx="1"/><path fill="#fff" d="M56.84356 9.02285h-7a1.00019 1.00019 0 0 1 .00006-2h6.99994A1.00019 1.00019 0 0 1 56.84356 9.02285zM54.84356 13.02285h-5a1.00019 1.00019 0 0 1 .00006-2h4.99994A1.00019 1.00019 0 0 1 54.84356 13.02285zM54.84356 17.02285h-5a1.00019 1.00019 0 0 1 .00006-2h4.99994A1.00019 1.00019 0 0 1 54.84356 17.02285z"/><rect width="15" height="18" x="45.844" y="27.023" fill="#168fd6" rx="1"/><path fill="#fff" d="M56.84356 33.02285h-7a1.00019 1.00019 0 0 1 .00006-2h6.99994A1.00019 1.00019 0 0 1 56.84356 33.02285zM54.84356 37.02285h-5a1.00019 1.00019 0 0 1 .00006-2h4.99994A1.00019 1.00019 0 0 1 54.84356 37.02285zM54.84356 41.02285h-5a1.00019 1.00019 0 0 1 .00006-2h4.99994A1.00019 1.00019 0 0 1 54.84356 41.02285z"/><path d="M16.61257,42.991a.69831.69831,0,0,0,.51783.6785,38.79826,38.79826,0,0,0,10.59767,1.35166,45.95624,45.95624,0,0,0,10.59432-1.353.69776.69776,0,0,0,.52117-.679v-2.055a9.07471,9.07471,0,0,0-9.199-8.94505H25.8116a9.07471,9.07471,0,0,0-9.199,8.94505Z" opacity=".1"/><path fill="#044388" d="M16.61257,41.991a.69831.69831,0,0,0,.51783.6785,38.79826,38.79826,0,0,0,10.59767,1.35166,45.95624,45.95624,0,0,0,10.59432-1.353.69776.69776,0,0,0,.52117-.679v-2.055a9.07471,9.07471,0,0,0-9.199-8.94505H25.8116a9.07471,9.07471,0,0,0-9.199,8.94505Z"/><path d="M25.4039,32.38245c-.06585,1.32411,4.46205,1.58044,4.64838-.00086l0-3.80642H25.4039Z" opacity=".1"/><path fill="#ccdde7" d="M25.4039,31.68036c-.0659,1.32408,4.462,1.58046,4.64838-.00086l0-3.10433H25.4039Z"/><rect width="4.632" height=".434" x="25.42" y="28.993" opacity=".1"/><path fill="#ccdde7" d="M19.59347,20.80014a2.31182,2.31182,0,0,0,2.32417,2.30054c-.93736,8.53826,12.54587,8.53247,11.62085,0a2.30031,2.30031,0,0,0,.95292-4.394c-.0988.60389-1.59205-3.65785-2.115-3.65785H23.07973c-.523,0-2.0162,4.26174-2.115,3.65785A2.2927,2.2927,0,0,0,19.59347,20.80014Z"/><path d="M27.72807,19.232c-2.90522,0-3.48626-1.89442-4.0673-1.89442-.7035,0-.99629,1.33529-1.59191,2.49144a.59137.59137,0,0,1-1.1041-.36973,18.17933,18.17933,0,0,1-.08717-4.83074,4.39725,4.39725,0,0,1,3.43976-3.40361c.568-.05841,1.98933-.20207,3.41071-.20207s2.84277.14366,3.41072.20207a4.39725,4.39725,0,0,1,3.43976,3.40361,18.18083,18.18083,0,0,1-.08713,4.83077c.012.64671-.77739.97853-1.10417.36967-.59559-1.15612-.88838-2.49141-1.59188-2.49141C31.21432,17.33756,30.63328,19.232,27.72807,19.232Z" opacity=".1"/><path fill="#044388" d="M27.72807,18.4996c-2.90522,0-3.48626-1.7254-4.0673-1.7254-.7035,0-.99629,1.21616-1.59191,2.26916a.5956.5956,0,0,1-1.1041-.33674,15.09562,15.09562,0,0,1-.08717-4.39978,4.2264,4.2264,0,0,1,3.43976-3.09995c.568-.0532,1.98933-.184,3.41071-.184s2.84277.13084,3.41072.184a4.2264,4.2264,0,0,1,3.43976,3.09995,15.0968,15.0968,0,0,1-.08713,4.3998.59563.59563,0,0,1-1.10417.3367c-.59559-1.053-.88838-2.26914-1.59188-2.26914C31.21432,16.7742,30.63328,18.4996,27.72807,18.4996Z"/><path fill="#fff" d="M34.48594,38.02285a1.00019,1.00019,0,0,1-2-.00007A1.00019,1.00019,0,0,1,34.48594,38.02285Z"/></svg>